<svg id="Layer_1" data-name="Layer 1" xmlns="http://www.w3.org/2000/svg" viewBox="0 0 1920 1080"><defs><style>.cls-1{fill:#ff0;}</style></defs><path class="cls-1" d="M481.63,236h48.53c40.14,0,59.18,27.25,59.18,67.2S569,369.51,528.86,369.51H481.63ZM528.3,354.76c31.36,0,43.87-20.16,43.87-51.52S561,250.6,529.6,250.6H498.43V354.76Z"/><path class="cls-1" d="M599.61,236h15.12V254.7H599.61Zm0,37h15.12v96.51H599.61Z"/><path class="cls-1" d="M625.37,374.92h14c1.49,10.64,11.57,14.75,26.51,14.75,17.73,0,27.62-8,27.62-24.83V351.22h-.37c-7.09,9.14-14.75,14.93-28.56,14.93-25,0-42.19-20-42.19-47.79,0-30.05,18.86-47.6,41.26-47.6,14,0,23,5.41,29.49,14.56h.37V273h15.13v91.28c0,25.39-16.81,37.34-42.38,37.34C641.24,401.62,627.05,391.54,625.37,374.92Zm69.25-57.31c0-21.09-9-34.16-29.49-34.16-18.11,0-27.25,14.19-27.25,35.1,0,21.09,9.52,34.91,27.44,34.91C687.53,353.46,694.62,338,694.62,317.61Z"/><path class="cls-1" d="M721.69,236h15.13V254.7H721.69Zm0,37h15.13v96.51H721.69Z"/><path class="cls-1" d="M743.72,273h14V242.57h15.12V273h18.67v12.32H772.84V348c0,6.72,3.55,9,9.71,9a28.73,28.73,0,0,0,8-1.3h.56v13.06A58.79,58.79,0,0,1,779,370.07c-12.32,0-21.28-5-21.28-18.67V285.32h-14Z"/><path class="cls-1" d="M858.9,356.07h-.19c-5.78,7.47-15.68,15.31-32.1,15.31-18.3,0-32.67-8.59-32.67-26.88,0-22.78,17.92-27.45,42-31.18,13.63-2.05,23.15-3.36,23.15-13.81,0-10.83-7.84-17-21.66-17-15.68,0-23.52,6.72-24.08,21.28H798.79c.56-18.67,12.88-32.67,38.46-32.67,20.53,0,35.65,7.66,35.65,30.62v45.92c0,7.84,1.87,12.13,10.27,10.27h.56v11a20.64,20.64,0,0,1-8.21,1.49C865.62,370.44,860.4,366,858.9,356.07Zm.37-22.22V317.43c-5,3.17-13.81,5.6-22,7.09-15.12,2.8-27.26,5.41-27.26,19.6,0,12.88,10.08,15.68,20,15.68C850.13,359.8,859.27,345.06,859.27,333.85Z"/><path class="cls-1" d="M888,236h15.12V369.51H888Z"/><path class="cls-1" d="M959.89,236h48.54c40.13,0,59.18,27.25,59.18,67.2s-20.35,66.27-60.49,66.27H959.89Zm46.67,118.72c31.36,0,43.87-20.16,43.87-51.52s-11.2-52.64-42.56-52.64H976.69V354.76Z"/><path class="cls-1" d="M1072.46,321.35c0-28,18.29-50.78,45.74-50.78,28.93,0,44.42,22.4,44.42,54.32H1088c1.12,19.61,11.76,34.54,31.18,34.54,14,0,23.33-6.72,26.69-19.79h14.75c-4.48,20.72-19.6,32.48-41.44,32.48C1089.63,372.12,1072.46,349.35,1072.46,321.35Zm15.87-7.84h58.05c-.93-19.23-10.82-31-28.18-31C1100.27,282.52,1090.57,296,1088.33,313.51Z"/><path class="cls-1" d="M1164.49,321.35c0-28,17.92-50.78,46.67-50.78,22.78,0,37.9,13.07,41.26,33.6h-15.31c-2.24-13.06-11.39-21.09-25.95-21.09-20.53,0-31.17,17-31.17,38.27s10.64,38.08,31.17,38.08c15.68,0,25-9,26.32-23.89h14.94c-2.06,23.14-17.18,36.58-41.26,36.58C1182.41,372.12,1164.49,349.35,1164.49,321.35Z"/><path class="cls-1" d="M1320.37,356.07h-.19c-5.79,7.47-15.68,15.31-32.11,15.31-18.29,0-32.67-8.59-32.67-26.88,0-22.78,17.93-27.45,42-31.18,13.62-2.05,23.14-3.36,23.14-13.81,0-10.83-7.84-17-21.65-17-15.68,0-23.52,6.72-24.08,21.28h-14.56c.56-18.67,12.88-32.67,38.45-32.67,20.54,0,35.66,7.66,35.66,30.62v45.92c0,7.84,1.86,12.13,10.26,10.27h.57v11a20.7,20.7,0,0,1-8.22,1.49C1327.09,370.44,1321.86,366,1320.37,356.07Zm.37-22.22V317.43c-5,3.17-13.81,5.6-22,7.09-15.12,2.8-27.25,5.41-27.25,19.6,0,12.88,10.08,15.68,20,15.68C1311.59,359.8,1320.74,345.06,1320.74,333.85Z"/><path class="cls-1" d="M1345.76,399.38V385.94h.74c2.06,1.12,5.23,2.05,10.27,2.05,6.35,0,10.64-2.43,14.38-11.76l3.73-9.52L1337.17,273h16.43l22.77,60.11c3,8,6.54,18.85,6.54,18.85h.37s3.36-10.83,6.35-18.85l22-60.11h16.06l-41.26,104.35c-7.84,20-15.3,24.08-27.07,24.08C1353.6,401.43,1349.86,401.06,1345.76,399.38Z"/><path class="cls-1" d="M599.61,385h15.12v18.67H599.61Zm0,37h15.12v96.52H599.61Z"/><path class="cls-1" d="M642.91,434.67h.38c6.9-9.15,16.61-14.94,30.61-14.94,20.16,0,32.48,11,32.48,31v67.77H691.26V452c0-12.51-8.21-19.6-21.84-19.6-15.31,0-26.51,10.82-26.51,26.69v59.37H627.79V422h15.12Z"/><path class="cls-1" d="M742.42,422h14V391.55h15.12V422H790.2v12.32H771.54V497c0,6.72,3.54,9,9.7,9a28.69,28.69,0,0,0,8-1.31h.56v13.07A58.72,58.72,0,0,1,777.7,519c-12.32,0-21.28-5-21.28-18.66V434.29h-14Z"/><path class="cls-1" d="M813.54,434.67h.37c6.91-9.15,16.62-14.94,30.62-14.94,20.16,0,32.48,11,32.48,31v67.77H861.89V452c0-12.51-8.22-19.6-21.84-19.6-15.31,0-26.51,10.82-26.51,26.69v59.37H798.42V385h15.12Z"/><path class="cls-1" d="M884.1,470.32c0-28,18.3-50.77,45.74-50.77,28.93,0,44.43,22.4,44.43,54.32H899.6c1.12,19.6,11.76,34.54,31.17,34.54,14,0,23.34-6.73,26.7-19.79h14.74c-4.47,20.72-19.6,32.48-41.44,32.48C901.28,521.1,884.1,498.32,884.1,470.32ZM900,462.48H958c-.94-19.23-10.83-31-28.19-31C911.92,431.49,902.21,444.93,900,462.48Z"/><path class="cls-1" d="M1051.93,385h18.85l49.28,133.48h-18.29l-14.19-40.7h-53.2L1020,518.49h-17.17Zm-12.7,79.15h43.69l-15.31-44.8c-2.62-7.47-6-18.85-6-18.85h-.37s-3.55,11.2-6.16,18.85Z"/><path class="cls-1" d="M1119.51,523.9h14c1.49,10.64,11.57,14.75,26.5,14.75,17.74,0,27.63-8,27.63-24.83V500.19h-.37c-7.1,9.15-14.75,14.93-28.56,14.93-25,0-42.19-20-42.19-47.78,0-30.06,18.85-47.61,41.25-47.61,14,0,23,5.42,29.5,14.56h.37V422h15.12v91.29c0,25.39-16.8,37.33-42.37,37.33C1135.37,550.59,1121.19,540.51,1119.51,523.9Zm69.25-57.31c0-21.09-9-34.16-29.49-34.16-18.11,0-27.26,14.19-27.26,35.09,0,21.1,9.52,34.91,27.44,34.91C1181.67,502.43,1188.76,486.94,1188.76,466.59Z"/><path class="cls-1" d="M1210.42,470.32c0-28,18.29-50.77,45.73-50.77,28.94,0,44.43,22.4,44.43,54.32h-74.67c1.12,19.6,11.76,34.54,31.18,34.54,14,0,23.33-6.73,26.69-19.79h14.75c-4.48,20.72-19.6,32.48-41.44,32.48C1227.59,521.1,1210.42,498.32,1210.42,470.32Zm15.87-7.84h58c-.93-19.23-10.83-31-28.19-31C1238.23,431.49,1228.53,444.93,1226.29,462.48Z"/><path class="cls-1" d="M640.86,619.3c0-28,17.92-50.78,46.67-50.78,28.94,0,46.48,22.78,46.48,50.78s-17.54,50.77-46.48,50.77C658.78,670.07,640.86,647.3,640.86,619.3Zm77.66,0c0-21.28-10.45-38.27-31-38.27s-31.17,17-31.17,38.27,10.64,38.08,31.17,38.08S718.52,640.58,718.52,619.3Z"/><path class="cls-1" d="M733.64,571H746.9V555.46c0-16.62,9.52-22.59,25.57-22.59,3.18,0,5.6.18,7.66.37v12.88c-2.62-.19-3.36-.19-4.86-.19-9.71,0-13.25,2.43-13.25,10.27V571h17.92v12.32H762v84.19H746.9V583.27H733.64Z"/><path class="cls-1" d="M481.63,683H575.9v14.75H498.43V739.9h70.38v14.19H498.43v46.85h79.71v15.5H481.63Z"/><path class="cls-1" d="M603.16,732.62h.37c6.91-9.15,16.61-14.93,30.61-14.93,20.16,0,32.48,11,32.48,31v67.77H651.5V750c0-12.51-8.21-19.6-21.84-19.6-15.3,0-26.5,10.83-26.5,26.69v59.37H588V719.93h15.13Z"/><path class="cls-1" d="M673.72,768.46c0-32.11,18.48-50.77,42.38-50.77a35.71,35.71,0,0,1,30.24,15.86h.37V683h15.12V816.44H746.71V804.68h-.37c-7.28,9.33-16.24,14.56-29.87,14.56C690.15,819.24,673.72,799.45,673.72,768.46Zm73.92.19c0-22.4-10.82-38.08-30.8-38.08-18.29,0-27.63,16.42-27.63,38.08,0,21.84,9.34,37.89,27.82,37.89C738.5,806.54,747.64,790.49,747.64,768.65Z"/><path class="cls-1" d="M775.46,683h15.12V816.44H775.46Z"/><path class="cls-1" d="M798.79,768.28c0-28,18.3-50.78,45.74-50.78,28.93,0,44.43,22.4,44.43,54.32H814.29c1.12,19.6,11.76,34.54,31.17,34.54,14,0,23.34-6.72,26.7-19.79h14.75c-4.48,20.72-19.61,32.48-41.45,32.48C816,819.05,798.79,796.28,798.79,768.28Zm15.87-7.85h58.06c-.94-19.22-10.83-31-28.19-31C826.61,729.45,816.9,742.89,814.66,760.43Z"/><path class="cls-1" d="M890.08,785.08h15.49c2.06,16.8,13.26,21.46,27.63,21.46,15.87,0,22.4-6.9,22.4-15.86,0-10.83-7.46-13.63-25.2-17.36-19-3.92-36-7.85-36-28.94,0-16,12.32-26.51,34.72-26.51,23.9,0,35.66,11.39,37.9,30.24H951.5c-1.5-12.69-8.4-18.29-22.78-18.29-13.81,0-19.41,6.16-19.41,13.81,0,10.46,9.33,12.51,25.94,15.87,19.42,3.92,35.66,8.21,35.66,30.43,0,19.41-15.87,29.31-38.08,29.31C906.32,819.24,891.57,806.73,890.08,785.08Z"/><path class="cls-1" d="M971.84,785.08h15.5c2,16.8,13.25,21.46,27.63,21.46,15.86,0,22.4-6.9,22.4-15.86,0-10.83-7.47-13.63-25.2-17.36-19-3.92-36-7.85-36-28.94,0-16,12.32-26.51,34.72-26.51,23.89,0,35.65,11.39,37.89,30.24h-15.49c-1.49-12.69-8.4-18.29-22.77-18.29-13.82,0-19.42,6.16-19.42,13.81,0,10.46,9.34,12.51,25.95,15.87,19.41,3.92,35.65,8.21,35.65,30.43,0,19.41-15.86,29.31-38.08,29.31C988.08,819.24,973.34,806.73,971.84,785.08Z"/><path class="cls-1" d="M1074.89,732.62h.37c6.91-9.15,16.62-14.93,30.62-14.93,20.16,0,32.48,11,32.48,31v67.77h-15.12V750c0-12.51-8.21-19.6-21.84-19.6-15.31,0-26.51,10.83-26.51,26.69v59.37h-15.12V719.93h15.12Z"/><path class="cls-1" d="M1145.46,768.28c0-28,18.29-50.78,45.73-50.78,28.94,0,44.43,22.4,44.43,54.32H1161c1.12,19.6,11.76,34.54,31.18,34.54,14,0,23.33-6.72,26.69-19.79h14.75c-4.48,20.72-19.6,32.48-41.44,32.48C1162.63,819.05,1145.46,796.28,1145.46,768.28Zm15.86-7.85h58.06c-.93-19.22-10.83-31-28.19-31C1173.27,729.45,1163.56,742.89,1161.32,760.43Z"/><path class="cls-1" d="M1236.74,785.08h15.5c2,16.8,13.25,21.46,27.62,21.46,15.87,0,22.4-6.9,22.4-15.86,0-10.83-7.46-13.63-25.2-17.36-19-3.92-36-7.85-36-28.94,0-16,12.32-26.51,34.72-26.51,23.89,0,35.65,11.39,37.89,30.24h-15.49c-1.49-12.69-8.4-18.29-22.78-18.29-13.81,0-19.41,6.16-19.41,13.81,0,10.46,9.33,12.51,26,15.87,19.41,3.92,35.65,8.21,35.65,30.43,0,19.41-15.86,29.31-38.08,29.31C1253,819.24,1238.24,806.73,1236.74,785.08Z"/><path class="cls-1" d="M1318.51,771.26h16.42c2.24,22.59,16.06,34.35,41.26,34.35,18.48,0,31.73-8.4,31.73-25,0-18.3-16.05-22.59-39.94-27.82-23.52-5.23-43.69-11.95-43.69-37.15,0-22,18.3-35.28,45.37-35.28,33.41,0,47.23,17,50.59,41.63h-15.87c-2.43-19-14.75-28.56-34.35-28.56-18.11,0-30.06,7.65-30.06,21.47,0,15.12,14.94,19.6,34.91,23.52,25.95,5.22,49.66,11.57,49.66,41.63,0,25-20.35,39-49.1,39C1337.92,819.05,1320,798.14,1318.51,771.26Z"/><circle class="cls-1" cx="1199" cy="619" r="51.5"/><circle class="cls-1" cx="1096.5" cy="619.5" r="51.5"/></svg>